<svg width="192" height="241" viewBox="0 0 192 241" fill="none" xmlns="http://www.w3.org/2000/svg">
<path d="M80.2655 0.335449C68.2802 1.39867 58.6147 5.2971 49.9479 12.5785C43.3431 18.1523 35.7073 27.2702 32.4854 33.4239C28.2648 41.5108 27.7815 49.6299 31.1 58.1678C32.2921 61.2285 33.9675 64.1282 35.8683 66.3191L37.2537 67.8978L36.6094 69.7664C34.9984 74.4059 36.3838 81.7518 39.6379 85.618C40.6045 86.8101 40.7011 87.1645 41.571 93.0283C42.6342 100.31 43.6008 104.337 45.3406 108.686C49.3679 118.739 56.166 125.827 65.4128 129.5L68.3447 130.692L68.2158 132.915L68.1191 135.138L63.9952 139.069C61.7399 141.259 58.9368 144.32 57.7448 145.867L55.6505 148.734L48.788 152.214C19.5335 167.067 16.8272 169.418 11.7366 184.239C8.51479 193.679 7.70933 197.062 4.39081 215.04C3.3276 220.871 1.90999 227.798 1.26561 230.408C-0.0231283 235.692 0.00909019 237.077 1.36227 237.947C3.48869 239.365 5.29293 237.98 6.32393 234.146C7.70933 229.055 8.90141 223.223 10.9634 211.335C13.9597 194.452 16.7305 184.336 20.5645 176.281L22.1432 172.963L25.7517 170.611C30.2301 167.711 37.4793 163.426 42.5698 160.687C50.4634 156.434 51.4299 155.919 51.4299 156.048C51.4299 156.144 50.7211 157.337 49.8512 158.754C47.757 162.105 43.3753 170.868 43.3753 171.706C43.3753 172.576 45.0829 173.414 46.436 173.188C48.4658 172.801 56.166 168.71 60.8055 165.584L62.6098 164.328L63.6085 167.002C65.0261 170.707 67.958 175.024 71.051 177.86C73.5318 180.179 73.5963 180.308 74.5951 183.305C75.7871 186.978 76.5282 188.266 77.9136 189.104C80.4911 190.683 81.6831 189.813 86.5804 182.725C91.2521 175.927 99.4356 164.94 99.8222 164.94C99.9511 164.94 100.08 165.101 100.08 165.294C100.08 166.325 108.521 183.756 109.81 185.399C110.809 186.655 112.387 187.268 113.451 186.784C115.094 186.043 124.276 173.8 132.524 161.332C134.393 158.529 135.971 156.241 136.1 156.241C137.196 156.241 166.45 175.991 170.22 179.277C172.346 181.146 174.215 183.949 175.439 187.171C176.696 190.425 178.79 200.735 179.66 208.113C180.046 211.206 180.626 215.555 180.981 217.779C181.818 223.191 184.75 238.044 185.137 239.043C185.91 240.911 189.196 241.62 190.807 240.235L191.677 239.462L190.517 234.178C189.229 228.314 187.682 219.357 185.91 207.63C184.589 198.705 182.849 190.296 181.69 187.042C178.983 179.406 175.246 175.637 162.455 167.518C159.523 165.649 154.272 162.298 150.76 160.043C147.248 157.788 142.447 154.759 140.095 153.309C137.743 151.892 135.617 150.377 135.327 150.023C135.037 149.636 132.621 145.706 129.914 141.292C127.208 136.878 124.598 132.786 124.115 132.206C122.923 130.692 121.666 130.144 119.121 129.919L116.93 129.725L116.737 126.954C116.511 123.829 116.962 114.196 117.478 110.426C117.671 109.073 118.09 106.979 118.38 105.787L118.96 103.596L122.633 102.146C133.684 97.7322 139.709 89.6131 139.709 79.1421C139.709 76.2424 139.064 74.2448 137.55 72.505L136.422 71.1519L137.099 69.4765C138.033 67.189 139.225 62.9039 139.934 59.4243C140.353 57.2334 140.514 55.0748 140.482 50.4031C140.482 43.9272 140.095 40.7053 138.581 34.6804C135.81 23.7583 130.075 16.1225 121.409 11.9664C119.959 11.2575 118.155 10.5809 117.414 10.4521C116.544 10.291 115.448 9.71106 114.127 8.64784C110.197 5.45821 103.656 2.71962 96.6326 1.30202C93.894 0.722076 85.5172 -0.115601 83.9707 0.0132599C83.7129 0.0454865 82.0375 0.206573 80.2655 0.335449ZM76.6893 43.7016C76.4315 44.5071 76.2382 45.8281 76.2382 46.5691C76.2382 48.2767 77.0759 48.9855 79.3956 49.211C81.812 49.4365 85.1627 48.0511 93.9584 43.315C95.1183 42.7029 96.3104 42.1874 96.6003 42.1874C97.2769 42.1874 99.0489 44.2493 100.982 47.2779C103.141 50.6608 109.746 59.8754 112.516 63.3872C114.546 65.9647 115.964 68.6388 115.513 69.0576C115.448 69.1221 113.29 69.3476 110.712 69.5409C108.135 69.7342 105.525 69.992 104.913 70.0886C103.817 70.2497 103.753 70.2175 102.98 68.5744C100.789 63.8705 95.1827 60.4553 88.9323 60.0042C84.6472 59.682 80.9099 60.9386 77.8491 63.6771C75.8194 65.5136 74.5628 67.2856 73.7896 69.5087C73.403 70.5397 73.0163 71.1196 72.7908 71.0552C71.2443 70.443 68.4091 70.1208 67.0237 70.4108L65.4772 70.7008L64.3496 68.4455C63.093 65.9002 59.8067 62.324 57.6803 61.2608C53.653 59.1988 48.788 59.1021 44.7929 61.003C43.5041 61.6152 42.3765 62.034 42.2798 61.9051C41.9577 61.5829 42.0543 55.4936 42.4409 53.8183C42.7631 52.2718 44.3741 49.5976 44.954 49.5976C45.1151 49.5976 45.3084 49.8876 45.405 50.242C45.6628 51.1763 47.1126 51.4019 49.4646 50.7897C51.4944 50.242 53.4597 49.1466 56.9071 46.698C57.8736 45.9892 58.7435 45.4092 58.8402 45.4092C58.9368 45.4092 59.0013 45.9247 59.0335 46.6013C59.0657 48.9855 61.4177 49.5654 65.4772 48.2444C66.6371 47.8578 69.6656 46.3436 72.1787 44.8615C74.6595 43.4117 76.8181 42.1874 76.947 42.1874C77.0437 42.1874 76.947 42.864 76.6893 43.7016ZM55.2317 64.7404C57.6159 65.9647 59.2268 67.7045 60.58 70.5075C61.4499 72.3762 61.5788 72.9561 61.5465 75.3725C61.5143 78.9487 60.7089 81.0752 58.3569 83.6526C56.1338 86.1013 54.1041 87.0678 51.0755 87.0678C47.2093 87.0678 43.8263 84.9414 42.0865 81.3974C39.058 75.2114 40.3145 68.7032 45.1151 65.4492C47.0804 64.1282 48.1436 63.8382 50.9789 63.806C52.912 63.7738 53.5563 63.9349 55.2317 64.7404ZM90.7043 64.2571C95.0538 65.4169 97.4702 67.3501 99.3711 71.1519C100.499 73.4394 100.563 73.7293 100.563 76.629C100.531 79.9153 100.144 81.1718 98.2435 83.7171C96.1493 86.4879 91.1876 88.4854 87.2892 88.1633C82.1342 87.7444 78.5902 84.6514 77.3981 79.5609C75.8516 73.0205 77.978 67.4145 82.8752 65.1592C85.8393 63.806 88.0624 63.5483 90.7043 64.2571ZM132.911 73.9549C134.683 75.4369 135.069 79.1098 133.909 83.556C133.007 87.0678 131.525 89.6775 128.916 92.3194C125.758 95.5091 122.601 97.2489 116.93 98.892C114.707 99.5364 114.611 99.6008 114.127 100.922C112.452 105.658 111.807 109.105 111.356 116.322C110.938 122.573 111.099 127.309 112.033 134.59C112.967 142.129 113.29 141.098 108.586 146.189C99.7578 155.726 92.6697 164.747 85.4849 175.572C79.75 184.207 80.0722 183.788 79.7822 183.272C79.4278 182.596 77.3981 173.639 76.0771 166.938C74.5628 159.076 74.0796 154.501 73.6607 144.159C73.4996 139.359 73.2419 134.59 73.1452 133.495L72.9519 131.529L73.9829 131.304C74.5628 131.207 75.5616 131.111 76.2382 131.111C78.2035 131.111 82.9397 130.176 85.5494 129.274C90.2211 127.695 94.8283 125.021 97.9535 122.122C100.402 119.802 100.563 118.481 98.469 117.418C97.5025 116.934 97.4702 116.934 93.7329 119.383C83.5518 126.02 76.3026 128.05 69.279 126.278C59.0013 123.636 51.2688 115.098 48.2081 102.984C47.3059 99.4397 46.436 94.4459 46.1783 91.3851C46.0494 90.0319 46.1138 89.8708 46.5649 90.0319C49.3679 91.1273 53.5241 90.9985 56.6171 89.742L58.6469 88.9365L60.1611 90.3541C61.9009 91.9973 63.8341 92.7061 64.9295 92.1584C65.9605 91.6106 65.7672 90.6119 64.2851 88.9687C62.2876 86.7134 62.1909 86.3268 63.1575 84.9092C64.2529 83.2982 65.2517 80.5597 65.7994 77.6278C66.0894 76.1779 66.476 75.0503 66.7982 74.7925C67.0881 74.5992 68.0869 74.4059 69.0212 74.4059C71.2766 74.4059 72.2753 75.1792 72.5331 77.2411C73.1774 81.8484 74.4984 84.877 76.9148 87.4544C80.5555 91.3207 86.7737 93.0283 92.1864 91.6429C97.3736 90.3219 101.53 87.2289 103.527 83.2016C104.591 81.0107 104.752 80.463 104.848 77.66C104.945 75.9524 105.138 74.4704 105.299 74.3737C105.46 74.2771 107.941 74.1482 110.841 74.116C116.866 74.0193 116.318 73.7293 116.673 77.3056C117.027 80.9141 117.091 81.1718 118.058 81.1718C119.701 81.1718 120.99 80.0442 122.15 77.5633C122.762 76.2746 123.277 75.0503 123.277 74.7925C123.277 74.2448 123.728 74.0837 127.047 73.6005C131.332 72.9883 131.815 73.0205 132.911 73.9549ZM128.078 147.832C129.689 150.571 131.01 152.987 131.01 153.148C131.01 153.696 129.914 155.436 124.92 162.781C122.375 166.519 118.541 172.189 116.415 175.379L112.549 181.114L111.163 178.601C110.39 177.183 108.586 173.091 107.136 169.451C105.686 165.81 104.236 162.298 103.882 161.622C103.334 160.526 103.302 160.301 103.721 159.688C104.236 158.915 105.944 157.047 115.964 146.189L122.73 138.843L123.922 140.873C124.566 141.968 126.435 145.093 128.078 147.832ZM68.8602 151.086C69.279 155.758 70.4066 163.007 71.5665 168.355C72.0176 170.417 72.372 172.318 72.372 172.608C72.372 174.026 68.3447 166.68 66.7015 162.234C64.8328 157.24 64.6717 157.208 58.0347 161.267C55.1995 162.975 52.6864 164.457 52.4287 164.553C51.9454 164.747 54.2974 161.042 57.0359 157.369C59.549 153.986 63.5441 149.217 66.2182 146.414L68.3447 144.159L68.4091 145.609C68.4735 146.414 68.6668 148.863 68.8602 151.086Z" fill="#1F1F1E"/>
<path d="M54.0718 73.3426C53.4597 73.6004 52.7186 75.2435 52.7186 76.4034C52.7186 76.9833 53.0086 77.9499 53.363 78.4976C53.8785 79.3675 54.2007 79.5608 55.0706 79.5608C56.6171 79.5608 57.4225 78.852 57.6803 77.2733C58.1636 74.3092 56.4238 72.4083 54.0718 73.3426Z" fill="#3E3E3D"/>
<path d="M89.1901 73.9225C87.8369 74.889 87.708 77.8532 88.9967 79.2708C89.7056 80.044 91.3809 80.0762 92.3475 79.303C93.1852 78.6264 93.5396 76.4033 93.0241 75.0824C92.3797 73.5681 90.5432 73.0204 89.1901 73.9225Z" fill="#3E3E3D"/>
<path d="M69.3756 108.493C67.4425 110.62 70.6321 113.68 73.3063 112.295C74.305 111.747 74.6272 110.684 74.1117 109.363C73.5962 108.01 70.3421 107.43 69.3756 108.493Z" fill="#3E3E3D"/>
<path d="M147.119 198.673C146.152 198.705 142.318 198.995 138.581 199.253C124.856 200.251 116.544 200.703 111.421 200.703C106.266 200.703 106.169 200.735 105.396 201.508C104.462 202.41 104.429 202.603 105.009 203.409C105.686 204.343 107.909 204.537 114.417 204.214C134.328 203.216 153.82 201.991 154.529 201.734C156.301 201.057 156.623 199.607 155.174 198.866C154.4 198.479 151.694 198.415 147.119 198.673Z" fill="#3E3E3D"/>
</svg>
