<?xml version="1.0" standalone="no"?>
<!DOCTYPE svg PUBLIC "-//W3C//DTD SVG 20010904//EN"
 "http://www.w3.org/TR/2001/REC-SVG-20010904/DTD/svg10.dtd">
<svg version="1.0"
    xmlns="http://www.w3.org/2000/svg" width="1024.000000pt" height="1024.000000pt" viewBox="0 0 1024.000000 1024.000000" preserveAspectRatio="xMidYMid meet">

    <g transform="translate(0.000000,1024.000000) scale(0.100000,-0.100000)" fill="currentColor" stroke="none">
        <path d="M5087 9654 c-4 -4 -7 -643 -7 -1421 l0 -1413 -85 0 c-77 0 -85 -2
-96 -22 -8 -14 -12 -83 -13 -195 l-1 -173 -263 0 -262 0 0 -657 1 -658 -488
-5 -488 -5 -260 -108 c-645 -269 -786 -328 -870 -367 -49 -23 -166 -76 -260
-117 -496 -220 -1205 -606 -1205 -657 0 -8 19 -15 53 -20 28 -3 692 -6 1474
-6 l1422 0 -48 -107 c-27 -60 -126 -265 -220 -457 -95 -192 -171 -356 -169
-365 3 -14 42 -16 368 -19 l365 -2 0 -363 0 -362 1072 0 c866 0 1075 2 1085
13 10 10 14 92 16 362 l3 350 369 0 c203 0 371 4 374 8 4 8 -316 647 -428 855
l-48 87 1495 0 c821 0 1496 3 1500 6 15 16 -16 40 -142 110 -75 42 -194 109
-266 149 -431 241 -1174 581 -1972 902 l-268 108 -471 3 -472 3 -7 135 c-4 75
-10 370 -14 657 l-6 522 -242 3 c-223 2 -243 4 -243 20 -1 110 -23 358 -33
364 -7 4 -47 8 -89 8 l-78 0 -2 1418 -3 1417 -35 3 c-20 2 -39 0 -43 -4z m188
-2926 c2 -7 5 -77 8 -155 l3 -143 -157 0 -157 0 -3 83 c-2 45 -3 115 -1 155
l4 72 149 0 c111 0 151 -3 154 -12z m507 -995 c2 -335 2 -611 0 -615 -2 -5
-300 -8 -663 -8 l-659 0 0 493 c0 272 -3 549 -7 615 l-6 122 666 0 666 0 3
-607z m1086 -747 c229 -86 799 -315 922 -371 69 -31 213 -95 320 -143 236
-105 650 -311 897 -447 l182 -100 -402 -7 c-221 -3 -2053 -3 -4072 0 l-3670 7
115 67 c367 213 1186 590 1965 905 l330 133 1648 0 1648 0 117 -44z m-399
-1323 c51 -93 152 -288 227 -435 l134 -268 -1700 0 -1700 0 23 48 c12 26 53
110 91 187 37 77 104 220 147 318 44 98 95 209 114 247 l35 70 1269 0 1269 0
91 -167z m-349 -1103 l0 -320 -1000 0 -1000 0 0 320 0 320 1000 0 1000 0 0
-320z"/>
    </g>
</svg>
